<?xml version="1.0" standalone="no"?>
<!DOCTYPE svg PUBLIC "-//W3C//DTD SVG 20010904//EN"
        "http://www.w3.org/TR/2001/REC-SVG-20010904/DTD/svg10.dtd">
<svg version="1.0" xmlns="http://www.w3.org/2000/svg"
     width="700.000000pt" height="700.000000pt" viewBox="0 0 700.000000 700.000000"
     preserveAspectRatio="xMidYMid meet">
    <metadata>
        Created by potrace 1.14, written by Peter Selinger 2001-2017
    </metadata>
    <g transform="translate(0.000000,700.000000) scale(0.100000,-0.100000)"
       fill="#000000" stroke="none">
        <path d="M3339 6988 c-1 -7 -2 -758 -3 -1668 l-1 -1655 -1665 0 -1665 0 0
-165 0 -165 1665 0 1665 0 0 -1665 0 -1665 165 -3 165 -2 0 1667 0 1668 1668
0 1667 0 -2 165 -3 165 -1665 0 -1665 0 0 1665 0 1665 -163 3 c-126 2 -162 0
-163 -10z"/>
        <path d="M1602 6307 c-20 -12 -51 -63 -186 -312 -21 -38 -48 -88 -60 -110 -13
-22 -42 -76 -66 -120 -82 -151 -131 -240 -140 -255 -6 -8 -13 -22 -17 -30 -3
-8 -23 -44 -43 -80 -20 -36 -57 -101 -80 -145 -24 -44 -77 -141 -118 -215 -41
-74 -88 -160 -104 -190 -17 -30 -43 -77 -58 -105 -114 -207 -117 -219 -75
-260 32 -33 84 -34 112 -2 11 12 48 74 83 137 34 63 80 149 103 190 22 41 49
89 59 105 10 17 21 37 25 45 3 8 29 56 56 105 28 50 70 128 95 175 25 47 56
102 69 122 12 21 23 39 23 41 0 7 350 641 358 649 6 6 59 -87 212 -371 20 -36
77 -140 127 -231 50 -91 104 -190 121 -220 258 -475 406 -738 423 -752 32 -27
83 -23 108 8 30 38 26 68 -18 148 -21 39 -56 103 -76 141 -21 39 -70 129 -110
200 -40 72 -89 162 -110 200 -21 39 -124 228 -230 420 -209 381 -228 416 -317
580 -33 61 -65 115 -72 121 -18 19 -69 25 -94 11z"/>
        <path d="M4503 5869 c-46 -17 -59 -94 -21 -129 12 -11 27 -21 32 -21 6 -1 385
-3 841 -4 457 -2 835 -3 841 -4 9 -1 12 -91 12 -328 0 -181 1 -341 1 -356 2
-67 88 -101 136 -52 l25 24 0 416 0 416 -24 24 -24 24 -899 -1 c-494 0 -908
-4 -920 -9z"/>
        <path d="M4439 2530 c-9 -5 -22 -23 -28 -38 -16 -39 -17 -37 186 -408 93 -170
186 -340 207 -377 20 -37 46 -84 58 -105 11 -20 41 -75 66 -122 25 -47 48 -89
52 -95 4 -5 21 -35 37 -65 65 -120 105 -192 122 -223 9 -18 61 -111 114 -208
54 -97 104 -182 111 -188 23 -20 67 -23 91 -7 12 8 41 48 62 88 22 40 57 105
78 143 21 39 71 130 111 203 41 73 74 137 74 142 0 4 3 10 8 12 4 2 22 32 41
68 19 36 95 175 169 310 145 264 173 315 219 400 17 30 67 122 112 204 46 82
87 160 92 173 10 27 -4 70 -29 89 -28 22 -81 17 -103 -8 -17 -20 -173 -297
-333 -593 -42 -77 -221 -404 -301 -550 -48 -86 -80 -145 -169 -308 -60 -111
-71 -125 -81 -110 -7 10 -54 95 -105 188 -51 94 -103 188 -115 210 -25 44
-393 716 -445 810 -161 295 -193 352 -208 363 -19 14 -70 15 -93 2z"/>
        <path d="M2098 2311 c-41 -20 -56 -58 -39 -98 6 -15 38 -56 69 -89 67 -72 203
-221 258 -283 22 -24 54 -59 72 -78 17 -19 32 -36 32 -37 0 -1 -443 -2 -985
-2 -959 0 -985 -1 -1006 -20 -46 -41 -44 -97 5 -129 23 -16 111 -17 1007 -17
l981 0 -24 -26 c-12 -15 -30 -34 -38 -43 -343 -375 -380 -419 -380 -450 0 -60
92 -106 132 -66 7 8 49 53 93 102 44 48 94 102 110 120 17 18 48 52 69 76 22
24 62 69 90 99 213 232 216 237 216 273 0 25 -10 44 -44 80 -24 26 -77 84
-117 129 -41 45 -87 96 -104 114 -16 17 -47 51 -69 75 -81 92 -212 234 -234
255 -32 31 -56 35 -94 15z"/>
    </g>
</svg>
