<svg width="128" height="128" viewBox="0 0 128 128" fill="none" xmlns="http://www.w3.org/2000/svg">
<g clip-path="url(#clip0_10_2)">
<rect x="61" width="6" height="128" fill="black"/>
<rect y="67" width="6" height="128" transform="rotate(-90 0 67)" fill="black"/>
<path d="M30 14L47 45" stroke="black" stroke-width="3" stroke-linecap="round"/>
<path d="M13 45L30 14" stroke="black" stroke-width="3" stroke-linecap="round"/>
<path d="M99 114L82 83" stroke="black" stroke-width="3" stroke-linecap="round"/>
<path d="M116 83L99 114" stroke="black" stroke-width="3" stroke-linecap="round"/>
<path d="M83 22H115" stroke="black" stroke-width="3" stroke-linecap="round"/>
<path d="M115 36V22" stroke="black" stroke-width="3" stroke-linecap="round"/>
<path d="M10 96.5C9.17157 96.5 8.5 97.1716 8.5 98C8.5 98.8284 9.17157 99.5 10 99.5V96.5ZM10 99.5H49V96.5H10V99.5Z" fill="black"/>
<path d="M39 87L49 98" stroke="black" stroke-width="3" stroke-linecap="round"/>
<path d="M39 109L49 98" stroke="black" stroke-width="3" stroke-linecap="round"/>
</g>
<defs>
<clipPath id="clip0_10_2">
<rect width="128" height="128" fill="white"/>
</clipPath>
</defs>
</svg>
